<svg width="24" height="24" viewBox="0 0 24 24" fill="none" xmlns="http://www.w3.org/2000/svg">
<path d="M9.82483 5.5632C9.52148 5.66679 9.50976 6.0915 9.80694 6.21166L11.4661 6.88255C11.5535 6.91789 11.6227 6.98738 11.6577 7.07493L12.3142 8.71681C12.4268 8.99845 12.8215 9.00934 12.9494 8.73434L13.6955 7.13116C13.7353 7.04567 13.8082 6.9801 13.8974 6.94963L15.5911 6.37125C15.8944 6.26766 15.9061 5.84295 15.609 5.72279L13.9498 5.0519C13.8624 5.01655 13.7932 4.94707 13.7582 4.85951L13.1017 3.21763C12.9891 2.936 12.5944 2.92511 12.4664 3.20011L11.7204 4.80329C11.6806 4.88878 11.6077 4.95434 11.5184 4.98482L9.82483 5.5632Z" fill="white"/>
<path d="M12.552 10.9279C12.873 11.2238 12.9783 11.687 12.8169 12.0926L10.3094 18.392C10.1047 19.1816 9.39201 19.7328 8.57631 19.7327L7.14231 19.7325C6.52829 19.7324 5.95715 19.4176 5.62922 18.8985L1.27666 14.1468C0.918798 13.5803 0.907303 12.8614 1.24687 12.2838L4.94132 7.39092C5.2989 6.78267 6.08189 6.57944 6.69019 6.93699C7.29848 7.29453 7.50173 8.07746 7.14416 8.68571L3.68606 13.1765L7.56437 17.1775L7.98454 17.1776L10.6436 9.83134C10.7291 9.59521 11.0275 9.52239 11.2121 9.6926L12.552 10.9279Z" fill="white"/>
<path d="M16.685 6.90971C17.2037 6.74772 17.7688 6.91449 18.1165 7.3321L22.2964 12.3529C22.6399 12.8966 22.6653 13.5827 22.363 14.1503L17.7628 19.0905C17.1725 19.6177 16.6574 19.9492 16.0346 19.6175C15.4118 19.2859 15.1759 18.5122 15.5076 17.8894L19.8987 13.3416L16.0776 8.87303C15.7381 8.476 15.6904 7.90636 15.9593 7.45846C16.1126 7.2031 16.3544 7.01295 16.6387 6.92417L16.685 6.90971Z" fill="white"/>
</svg>
